<?xml version="1.0" encoding="UTF-8" standalone="no"?>
<!-- Created with Inkscape (http://www.inkscape.org/) -->

<svg
   xmlns:dc="http://purl.org/dc/elements/1.1/"
   xmlns:cc="http://creativecommons.org/ns#"
   xmlns:rdf="http://www.w3.org/1999/02/22-rdf-syntax-ns#"
   xmlns:svg="http://www.w3.org/2000/svg"
   xmlns="http://www.w3.org/2000/svg"
   xmlns:xlink="http://www.w3.org/1999/xlink"
   xmlns:sodipodi="http://sodipodi.sourceforge.net/DTD/sodipodi-0.dtd"
   xmlns:inkscape="http://www.inkscape.org/namespaces/inkscape"
   width="240mm"
   height="80mm"
   viewBox="0 0 240 80"
   version="1.1"
   id="svg8"
   inkscape:version="0.92.4 5da689c313, 2019-01-14"
   sodipodi:docname="webtuner-logo.svg"
   inkscape:export-filename="/home/zoe/webtuner_logo.png"
   inkscape:export-xdpi="45.954247"
   inkscape:export-ydpi="45.954247">
  <defs
     id="defs2">
    <linearGradient
       inkscape:collect="always"
       id="linearGradient1162">
      <stop
         style="stop-color:#5500d4;stop-opacity:1"
         offset="0"
         id="stop1158" />
      <stop
         style="stop-color:#660080;stop-opacity:1"
         offset="1"
         id="stop1160" />
    </linearGradient>
    <linearGradient
       inkscape:collect="always"
       xlink:href="#linearGradient1162"
       id="linearGradient1164"
       x1="1051.623"
       y1="751.35938"
       x2="1093.584"
       y2="549.58594"
       gradientUnits="userSpaceOnUse" />
    <linearGradient
       id="linearGradient972"
       inkscape:collect="always">
      <stop
         id="stop968"
         offset="0"
         style="stop-color:#c610f3;stop-opacity:1" />
      <stop
         id="stop970"
         offset="1"
         style="stop-color:#db51ff;stop-opacity:1" />
    </linearGradient>
    <linearGradient
       inkscape:collect="always"
       id="linearGradient19497">
      <stop
         style="stop-color:#fffbed;stop-opacity:1;"
         offset="0"
         id="stop19493" />
      <stop
         style="stop-color:#fffbed;stop-opacity:0;"
         offset="1"
         id="stop19495" />
    </linearGradient>
    <linearGradient
       inkscape:collect="always"
       id="linearGradient19453">
      <stop
         style="stop-color:#dc2323;stop-opacity:1"
         offset="0"
         id="stop19449" />
      <stop
         style="stop-color:#090101;stop-opacity:1"
         offset="1"
         id="stop19451" />
    </linearGradient>
    <clipPath
       clipPathUnits="userSpaceOnUse"
       id="clipPath19851">
      <circle
         style="color:#000000;clip-rule:nonzero;display:inline;overflow:visible;visibility:visible;opacity:1;isolation:auto;mix-blend-mode:normal;color-interpolation:sRGB;color-interpolation-filters:linearRGB;solid-color:#000000;solid-opacity:1;vector-effect:none;fill:none;fill-opacity:1;fill-rule:nonzero;stroke:#031417;stroke-width:1.79999995;stroke-linecap:round;stroke-linejoin:miter;stroke-miterlimit:4;stroke-dasharray:none;stroke-dashoffset:0;stroke-opacity:0.8307087;marker:none;color-rendering:auto;image-rendering:auto;shape-rendering:auto;text-rendering:auto;enable-background:accumulate"
         id="circle19853"
         cx="107.64311"
         cy="150.30594"
         r="81.290901" />
    </clipPath>
    <linearGradient
       inkscape:collect="always"
       xlink:href="#linearGradient19453"
       id="linearGradient19640-3"
       gradientUnits="userSpaceOnUse"
       gradientTransform="matrix(0.7279852,0,0,0.7279852,-137.54116,-50.241943)"
       x1="26.352234"
       y1="150.30595"
       x2="188.93401"
       y2="150.30595" />
    <linearGradient
       inkscape:collect="always"
       xlink:href="#linearGradient19453"
       id="linearGradient19455-5"
       x1="26.352234"
       y1="150.30595"
       x2="188.93401"
       y2="150.30595"
       gradientUnits="userSpaceOnUse"
       gradientTransform="matrix(3.7795276,0,0,3.7795276,-714.0813,-260.84433)" />
    <linearGradient
       y2="215.67874"
       x2="63.291191"
       y1="177.84332"
       x1="99.112503"
       gradientTransform="matrix(7.9782055,1.8527117,-1.8527117,7.9782055,97.087113,-1345.4383)"
       gradientUnits="userSpaceOnUse"
       id="linearGradient4856"
       xlink:href="#linearGradient19497"
       inkscape:collect="always" />
    <linearGradient
       gradientUnits="userSpaceOnUse"
       y2="128.4668"
       x2="137.21094"
       y1="146.33203"
       x1="137.9082"
       id="linearGradient974"
       xlink:href="#linearGradient972"
       inkscape:collect="always"
       gradientTransform="matrix(0.26458333,0,0,0.26458333,428.72267,115.28188)" />
    <filter
       height="1.1238887"
       y="-0.061944336"
       width="1.0297664"
       x="-0.01488321"
       id="filter1127"
       style="color-interpolation-filters:sRGB"
       inkscape:collect="always">
      <feGaussianBlur
         id="feGaussianBlur1129"
         stdDeviation="1.3994155"
         inkscape:collect="always" />
    </filter>
  </defs>
  <sodipodi:namedview
     id="base"
     pagecolor="#ffffff"
     bordercolor="#666666"
     borderopacity="1.0"
     inkscape:pageopacity="0.0"
     inkscape:pageshadow="2"
     inkscape:zoom="0.89817678"
     inkscape:cx="606.84547"
     inkscape:cy="185.41374"
     inkscape:document-units="mm"
     inkscape:current-layer="layer1"
     showgrid="false"
     inkscape:window-width="1870"
     inkscape:window-height="1051"
     inkscape:window-x="1970"
     inkscape:window-y="0"
     inkscape:window-maximized="1"
     showguides="true"
     inkscape:guide-bbox="true"
     inkscape:snap-object-midpoints="true"
     fit-margin-top="0"
     fit-margin-left="0"
     fit-margin-right="0"
     fit-margin-bottom="0" />
  <metadata
     id="metadata5">
    <rdf:RDF>
      <cc:Work
         rdf:about="">
        <dc:format>image/svg+xml</dc:format>
        <dc:type
           rdf:resource="http://purl.org/dc/dcmitype/StillImage" />
        <dc:title></dc:title>
      </cc:Work>
    </rdf:RDF>
  </metadata>
  <g
     inkscape:label="Layer 1"
     inkscape:groupmode="layer"
     id="layer1"
     transform="translate(-318.53405,-143.82634)">
    <g
       id="g5150"
       transform="translate(-5.5372503,-1.0907508)">
      <g
         aria-label="WebTuner"
         style="font-style:normal;font-variant:normal;font-weight:normal;font-stretch:normal;font-size:38.03518295px;line-height:1.25;font-family:'DIN 1451 Mittelschrift';-inkscape-font-specification:'DIN 1451 Mittelschrift';letter-spacing:-2.64583325px;word-spacing:0px;opacity:1;vector-effect:none;fill:#000000;fill-opacity:1;stroke:#ffffff;stroke-width:1.95099998;stroke-linecap:butt;stroke-linejoin:miter;stroke-miterlimit:4;stroke-dasharray:none;stroke-dashoffset:0;stroke-opacity:1"
         id="g5118">
        <path
           inkscape:connector-curvature="0"
           d="m 420.95938,209.22409 -6.77873,-27.05921 h 4.34582 l 4.25295,19.24046 h 0.0743 l 5.25584,-19.24046 h 2.95293 l 5.25583,19.24046 h 0.0743 l 4.25296,-19.24046 h 4.34582 l -6.77874,27.05921 h -3.41722 l -5.18155,-19.50046 h -0.0743 l -5.16298,19.50046 z"
           style="letter-spacing:-2.64583325px;vector-effect:none;fill:#000000;fill-opacity:1;stroke:#ffffff;stroke-width:1.95099998;stroke-linecap:butt;stroke-linejoin:miter;stroke-miterlimit:4;stroke-dasharray:none;stroke-dashoffset:0;stroke-opacity:1"
           id="path5102" />
        <path
           inkscape:connector-curvature="0"
           d="M 459.62252,201.05247 H 447.6251 q 0,2.3772 1.28146,3.5658 1.30003,1.1886 3.30579,1.1886 2.39577,0 4.23438,-1.85719 l 2.80436,2.39577 q -1.43004,1.67147 -3.23151,2.39577 -1.7829,0.70573 -3.73294,0.70573 -2.9715,0 -5.75728,-1.9129 -2.78578,-1.93147 -2.78578,-7.87447 0,-5.62727 2.56291,-7.78161 2.58149,-2.15434 5.38585,-2.15434 3.17579,0 5.55298,2.21005 2.3772,2.19148 2.3772,5.92443 z m -11.99742,-3.19436 h 8.13447 q -0.0928,-2.17291 -1.22574,-3.32436 -1.13288,-1.15146 -2.84149,-1.15146 -1.72719,0 -2.87864,1.15146 -1.13289,1.15145 -1.1886,3.32436 z"
           style="letter-spacing:-2.64583325px;vector-effect:none;fill:#000000;fill-opacity:1;stroke:#ffffff;stroke-width:1.95099998;stroke-linecap:butt;stroke-linejoin:miter;stroke-miterlimit:4;stroke-dasharray:none;stroke-dashoffset:0;stroke-opacity:1"
           id="path5104" />
        <path
           inkscape:connector-curvature="0"
           d="m 461.0625,209.22409 v -27.05921 h 3.88152 v 9.84309 q 1.07717,-1.02145 2.26577,-1.65289 1.20717,-0.63145 2.71149,-0.63145 1.76433,0 3.04579,0.72431 1.28146,0.70573 2.11719,1.78289 0.79859,1.04003 1.07717,2.43292 0.29715,1.37432 0.29715,4.90297 0,3.5658 -0.29715,4.97726 -0.27858,1.39289 -1.07717,2.41434 -0.83573,1.09574 -2.11719,1.80148 -1.28146,0.68715 -3.04579,0.68715 -2.9715,0 -4.97726,-2.22862 v 2.00576 z m 7.68875,-15.61894 q -2.73006,0 -3.26865,1.95005 -0.53858,1.95004 -0.53858,4.01152 0,2.11719 0.53858,4.06724 0.53859,1.95005 3.26865,1.95005 2.73007,0 3.26865,-1.87576 0.55716,-1.87576 0.55716,-4.14153 0,-2.21005 -0.55716,-4.08581 -0.53858,-1.87576 -3.26865,-1.87576 z"
           style="letter-spacing:-2.64583325px;vector-effect:none;fill:#000000;fill-opacity:1;stroke:#ffffff;stroke-width:1.95099998;stroke-linecap:butt;stroke-linejoin:miter;stroke-miterlimit:4;stroke-dasharray:none;stroke-dashoffset:0;stroke-opacity:1"
           id="path5106" />
        <path
           inkscape:connector-curvature="0"
           d="m 480.61333,209.22409 v -23.41912 h -7.41017 v -3.64009 h 18.92473 v 3.64009 h -7.41017 v 23.41912 z"
           style="letter-spacing:-2.64583325px;vector-effect:none;fill:#000000;fill-opacity:1;stroke:#ffffff;stroke-width:1.95099998;stroke-linecap:butt;stroke-linejoin:miter;stroke-miterlimit:4;stroke-dasharray:none;stroke-dashoffset:0;stroke-opacity:1"
           id="path5108" />
        <path
           inkscape:connector-curvature="0"
           d="m 488.21546,202.76108 v -12.81459 h 3.88152 v 11.49599 q 0,1.96862 1.07717,3.06436 1.09574,1.07717 2.7672,1.07717 1.61576,0 2.69293,-1.07717 1.09574,-1.09574 1.09574,-3.06436 v -11.49599 h 3.88152 v 19.2776 h -3.88152 v -2.0429 h -0.0743 q -1.80147,2.26576 -4.97726,2.26576 -2.28434,0 -4.38296,-1.69003 -2.08005,-1.70862 -2.08005,-4.99584 z"
           style="letter-spacing:-2.64583325px;vector-effect:none;fill:#000000;fill-opacity:1;stroke:#ffffff;stroke-width:1.95099998;stroke-linecap:butt;stroke-linejoin:miter;stroke-miterlimit:4;stroke-dasharray:none;stroke-dashoffset:0;stroke-opacity:1"
           id="path5110" />
        <path
           inkscape:connector-curvature="0"
           d="m 505.99868,209.22409 v -19.2776 h 3.88152 v 2.06148 h 0.0743 q 1.80147,-2.28434 5.01441,-2.28434 2.24719,0 4.32724,1.70861 2.09862,1.70862 2.09862,4.97726 v 12.81459 h -3.88152 v -11.47741 q 0,-1.95005 -1.09574,-3.04579 -1.07717,-1.09574 -2.69292,-1.09574 -1.67147,0 -2.76721,1.09574 -1.07717,1.09574 -1.07717,3.04579 v 11.47741 z"
           style="letter-spacing:-2.64583325px;vector-effect:none;fill:#000000;fill-opacity:1;stroke:#ffffff;stroke-width:1.95099998;stroke-linecap:butt;stroke-linejoin:miter;stroke-miterlimit:4;stroke-dasharray:none;stroke-dashoffset:0;stroke-opacity:1"
           id="path5112" />
        <path
           inkscape:connector-curvature="0"
           d="m 538.71368,201.05247 h -11.99742 q 0,2.3772 1.28146,3.5658 1.30003,1.1886 3.30579,1.1886 2.39577,0 4.23438,-1.85719 l 2.80436,2.39577 q -1.43004,1.67147 -3.23151,2.39577 -1.7829,0.70573 -3.73294,0.70573 -2.9715,0 -5.75728,-1.9129 -2.78578,-1.93147 -2.78578,-7.87447 0,-5.62727 2.56291,-7.78161 2.58149,-2.15434 5.38585,-2.15434 3.17579,0 5.55298,2.21005 2.3772,2.19148 2.3772,5.92443 z m -11.99742,-3.19436 h 8.13447 q -0.0928,-2.17291 -1.22574,-3.32436 -1.13288,-1.15146 -2.84149,-1.15146 -1.72719,0 -2.87864,1.15146 -1.13289,1.15145 -1.1886,3.32436 z"
           style="letter-spacing:-2.64583325px;vector-effect:none;fill:#000000;fill-opacity:1;stroke:#ffffff;stroke-width:1.95099998;stroke-linecap:butt;stroke-linejoin:miter;stroke-miterlimit:4;stroke-dasharray:none;stroke-dashoffset:0;stroke-opacity:1"
           id="path5114" />
        <path
           inkscape:connector-curvature="0"
           d="m 540.15366,209.22409 v -19.2776 h 3.88152 v 2.06148 h 0.0743 q 1.80147,-2.28434 5.0144,-2.28434 2.11719,0 4.0301,1.48575 l -2.80436,3.34294 q -1.26288,-0.94717 -2.56291,-0.94717 -1.43004,0 -2.60006,0.96574 -1.15146,0.94716 -1.15146,3.06436 v 11.58884 z"
           style="letter-spacing:-2.64583325px;vector-effect:none;fill:#000000;fill-opacity:1;stroke:#ffffff;stroke-width:1.95099998;stroke-linecap:butt;stroke-linejoin:miter;stroke-miterlimit:4;stroke-dasharray:none;stroke-dashoffset:0;stroke-opacity:1"
           id="path5116" />
      </g>
      <g
         transform="matrix(0.90914914,0,0,0.90914914,115.90063,30.575542)"
         id="g1168">
        <circle
           r="37.015068"
           cy="169.76483"
           cx="278.35251"
           id="circle1156"
           style="opacity:1;vector-effect:none;fill:#f4fcfc;fill-opacity:1;stroke:none;stroke-width:3.78800011;stroke-linecap:round;stroke-linejoin:round;stroke-miterlimit:4;stroke-dasharray:none;stroke-dashoffset:0;stroke-opacity:1;marker:none;paint-order:fill markers stroke" />
        <path
           inkscape:connector-curvature="0"
           style="color:#000000;font-style:normal;font-variant:normal;font-weight:normal;font-stretch:normal;font-size:medium;line-height:normal;font-family:sans-serif;font-variant-ligatures:normal;font-variant-position:normal;font-variant-caps:normal;font-variant-numeric:normal;font-variant-alternates:normal;font-feature-settings:normal;text-indent:0;text-align:start;text-decoration:none;text-decoration-line:none;text-decoration-style:solid;text-decoration-color:#000000;letter-spacing:normal;word-spacing:normal;text-transform:none;writing-mode:lr-tb;direction:ltr;text-orientation:mixed;dominant-baseline:auto;baseline-shift:baseline;text-anchor:start;white-space:normal;shape-padding:0;clip-rule:nonzero;display:inline;overflow:visible;visibility:visible;opacity:1;isolation:auto;mix-blend-mode:normal;color-interpolation:sRGB;color-interpolation-filters:linearRGB;solid-color:#000000;solid-opacity:1;vector-effect:none;fill:url(#linearGradient1164);fill-opacity:1;fill-rule:nonzero;stroke:none;stroke-width:14.31685066;stroke-linecap:round;stroke-linejoin:round;stroke-miterlimit:4;stroke-dasharray:none;stroke-dashoffset:0;stroke-opacity:1;marker:none;paint-order:fill markers stroke;color-rendering:auto;image-rendering:auto;shape-rendering:auto;text-rendering:auto;enable-background:accumulate"
           d="m 1052.0449,494.57227 c -81.13306,0 -147.06248,65.92946 -147.06248,147.0625 0,81.13307 65.92942,147.05468 147.06248,147.05468 81.1331,0 147.0547,-65.92161 147.0547,-147.05468 0,-81.13304 -65.9216,-147.0625 -147.0547,-147.0625 z m 0,14.32031 c 14.5585,0 28.5608,2.34373 41.6602,6.66015 -11.1926,10.54195 -26.0379,16.54358 -41.6231,16.5625 -15.6092,-0.003 -30.4749,-6.0112 -41.6797,-16.56835 13.0944,-4.31273 27.0906,-6.6543 41.6426,-6.6543 z m 59.7207,14.13476 c 25.4575,12.82413 46.1964,33.59885 58.9805,59.08008 -15.3936,-0.44207 -30.1623,-6.69574 -41.2129,-17.71875 l -0.01,-0.006 c -11.0693,-11.07976 -17.3415,-25.90934 -17.7598,-41.35547 z m -119.55076,0.0547 c -0.49968,15.30762 -6.7429,29.98109 -17.70898,40.97461 -10e-4,10e-4 -0.008,-10e-4 -0.008,0 -10e-4,10e-4 0.001,0.008 0,0.008 -10.99662,10.98621 -25.68706,17.2454 -41.00782,17.74805 12.77748,-25.31069 33.41486,-45.95141 58.72461,-58.73047 z m 13.70706,7.41016 c 1.0373,0.80857 2.1023,1.57814 3.1777,2.33008 -1.2146,1.07473 -2.8587,2.65647 -4.248,3.96875 0.4431,-2.0807 0.8026,-4.18109 1.0703,-6.29883 z m 92.1113,0.11133 c 2.0381,16.44706 9.4279,31.95583 21.3711,43.90625 a 7.1591414,7.1591414 0 0 0 0.01,0.008 c 8.8321,8.813 19.607,15.13035 31.2637,18.65039 -0.1514,3.0043 -0.3467,6.01457 -0.3145,9.01367 0.046,4.12043 0.706,8.38865 2.0332,12.35742 -3.4089,8.63175 -5.2317,17.9184 -5.2343,27.42774 a 7.1591414,7.1591414 0 0 0 0,0.008 c 0.019,16.81164 5.726,32.91951 15.8339,45.95117 -16.4471,2.03804 -31.9635,9.41998 -43.914,21.36328 a 7.1591414,7.1591414 0 0 0 -0.01,0.008 c -11.8747,11.90025 -19.2291,27.32366 -21.2969,43.68554 -7.7142,-6.01209 -16.5183,-10.46214 -25.9082,-13.11328 2.5152,-2.34215 5.8102,-3.93709 9.0859,-5.12305 -1.1872,-0.9606 -2.6104,-1.39483 -4.0996,-1.43359 -2.482,-0.0646 -5.1461,0.96735 -7.1973,2.47656 -1.1288,0.82963 -2.1503,1.78862 -3.1523,2.77149 -4.8549,-0.99086 -9.8338,-1.51423 -14.8789,-1.51563 a 7.1591414,7.1591414 0 0 0 -0.01,0 c -16.8114,0.0189 -32.9213,5.72666 -45.9531,15.83399 -2.0383,-16.44643 -9.42058,-31.95622 -21.36332,-43.90625 a 7.1591414,7.1591414 0 0 0 -0.008,-0.008 c -11.8992,-11.87282 -27.32579,-19.2286 -43.68555,-21.29687 10.18745,-13.07093 15.93289,-29.26552 15.9375,-46.16016 a 7.1591414,7.1591414 0 0 0 0,-0.006 c -0.0189,-16.80816 -5.72217,-32.91505 -15.82617,-45.94531 16.44435,-2.03936 31.95758,-9.42956 43.90625,-21.37109 a 7.1591414,7.1591414 0 0 0 0,-0.008 c 7.2552,-7.27086 12.81396,-15.86009 16.51949,-25.17187 2.1714,-0.46498 4.2571,-0.95008 6.045,-1.36133 1.0503,-0.24 2.1973,-0.50055 3.166,-0.0312 0.9489,0.46005 1.4613,1.49049 1.8652,2.46484 a 40.528009,40.528009 0 0 1 1.2637,27.26758 c -0.9372,3.02759 -2.2478,6.22253 -1.3242,9.25586 1.333,4.3719 6.8344,6.65209 7.6562,11.14844 0.3534,1.93463 -0.2393,4.04255 0.5625,5.83594 1.8838,4.20525 7.6262,2.32352 10.8711,1.57226 -0.023,0.004 0.4816,6.54636 0.9277,7.26368 1.5759,2.52754 5.6987,3.17453 8.2969,3.90039 9.5827,2.68021 18.0158,6.75229 26.6524,11.67773 2.0899,1.19191 4.2768,2.47801 5.4941,4.55664 3.262,5.56381 -2.1423,12.14956 -2.8399,18.56055 a 12.898357,12.898357 0 0 0 3.3692,10.07812 c 1.4206,1.51385 3.1992,2.66534 4.6113,4.19336 3.2903,3.55862 4.2111,8.78645 3.6914,13.60742 -0.5166,4.82094 -2.2879,9.40079 -3.7734,14.01563 a 121.29313,121.29313 0 0 0 -5.3672,26.60547 c -0.2347,2.69155 1.213,3.39237 3.625,2.65234 3.437,-1.05037 2.8137,-4.29673 3.6836,-6.85547 2.4995,-7.37129 10.4572,-13.93923 17.2383,-17.15039 3.0134,-1.4262 6.3158,-2.50569 8.6543,-4.88086 3.2988,-3.3496 4.022,-8.62374 7.332,-11.96484 2.8185,-2.84682 7.1014,-3.85547 9.9453,-6.67969 3.0841,-3.0644 4.1597,-7.55346 6.1621,-11.28711 1.5082,-2.81015 4.3904,-5.11041 5.6641,-7.9375 3.81,-8.46988 -6.4819,-7.81858 -11.3848,-8.86914 -3.1746,-0.68103 -6.6063,-3.73763 -8.4023,-6.31055 -1.1834,-1.69734 -1.9999,-3.64708 -3.3301,-5.23437 -1.4714,-1.75389 -3.4839,-2.96533 -5.5117,-4.02734 a 62.901728,62.901728 0 0 0 -28.6953,-7.1211 c -6.5497,-0.0427 -16.4159,-0.92869 -20.1836,-7.74023 -0.6245,-1.12687 -0.062,-2.50223 0.1894,-3.76758 0.2574,-1.2652 -0.181,-2.99565 -1.4687,-3.06055 -2.4572,-0.12397 -3.0277,2.80797 -6.1231,2.44922 -2.2369,-0.25927 -5.2606,-1.91658 -6.0175,-4.13086 -0.6885,-2.01649 0.01,-6.52824 0.1601,-8.67187 0.2763,-3.96541 15.6596,-3.71787 18.4414,-3.48633 -0.5219,3.02755 2.5375,7.76146 5.9238,5.00781 2.9344,-2.38367 -0.7022,-8.96858 1.8536,-12.26172 3.3354,-4.30424 7.617,-8.60385 11.3789,-12.64258 1.0589,-1.13809 2.1234,-2.27544 3.3379,-3.24414 2.6519,-2.10977 5.9032,-3.30196 8.832,-5.00781 -5.722,-8.85116 -16.0956,-14.49916 -26.6328,-14.50195 -0.8134,0 -1.706,0.0525 -2.3047,0.60547 -0.7878,0.72264 -0.7421,1.96146 -0.6289,3.02343 0.3073,2.92596 0.6705,5.84802 1.0859,8.75977 l -9.0078,-3.58008 c -2.2285,-0.88384 -4.5659,-1.8526 -6.0176,-3.76172 -1.4488,-1.90923 -1.5464,-5.06252 0.4414,-6.39843 2.8016,-1.8838 7.0564,1.07348 9.8243,-0.85547 1.6662,-1.16361 2.0984,-3.73116 3.9765,-4.50782 1.6805,-0.69169 3.497,0.43903 5.2735,0.83399 1.7735,0.39496 4.2843,-1.03908 3.4257,-2.64258 -0.346,-0.23062 -0.7136,-0.45323 -1.0664,-0.68359 1.7733,-0.49323 3.5256,-1.04728 5.2539,-1.66797 2.4718,0.84648 4.6452,2.71466 6.7442,4.38476 2.7508,2.18888 6.2472,4.24549 9.5996,3.1836 l -1.2754,-9.63672 c -0.2105,-1.59159 -0.4372,-3.21744 -0.9824,-4.71484 2.3106,-1.42361 4.5537,-2.96113 6.707,-4.63086 z m 80.1484,69.53515 c 4.2818,13.05203 6.6036,26.99862 6.6036,41.4961 0,14.66649 -2.374,28.76818 -6.752,41.95117 -10.5381,-11.19041 -16.5377,-26.03256 -16.5586,-41.61328 v -0.006 -0.008 c 0.01,-15.67225 6.0673,-30.60076 16.707,-41.82031 z m -252.2734,0.002 c 10.39426,11.16438 16.30732,25.90587 16.32422,41.375 -0.006,15.50628 -5.94282,30.28177 -16.37304,41.46094 -4.24997,-13.00831 -6.55665,-26.90058 -6.55665,-41.34179 0,-14.49682 2.32406,-28.44262 6.60547,-41.49415 z m 7.54883,101.25 c 15.21692,0.56168 29.79004,6.80064 40.72266,17.70899 10.97225,10.98268 17.22953,25.64483 17.74609,40.94336 -25.20015,-12.80089 -45.74214,-33.40803 -58.46875,-58.65235 z m 237.04497,0.26172 c -12.8498,25.34884 -33.5925,45.99377 -59.0118,58.72461 0.5037,-15.30518 6.75,-29.97633 17.7168,-40.96679 11.0653,-11.05484 25.8706,-17.32473 41.295,-17.75782 z m -118.879,49.70704 c 15.5765,0.003 30.4128,5.99218 41.6094,16.50976 -12.9635,4.21756 -26.8038,6.50586 -41.1875,6.50586 -14.6032,0 -28.6472,-2.35732 -41.7812,-6.69922 11.1619,-10.38853 25.8963,-16.29798 41.3593,-16.3164 z"
           transform="scale(0.26458333)"
           id="circle1132" />
      </g>
      <g
         id="text1172"
         style="font-style:normal;font-variant:normal;font-weight:normal;font-stretch:normal;font-size:38.03518295px;line-height:1.25;font-family:'DIN 1451 Mittelschrift';-inkscape-font-specification:'DIN 1451 Mittelschrift';letter-spacing:-2.64583325px;word-spacing:0px;fill:#000000;fill-opacity:1;stroke:none;stroke-width:0.95087951"
         aria-label="WebTuner">
        <path
           inkscape:connector-curvature="0"
           id="path5085"
           style="letter-spacing:-2.64583325px;stroke-width:0.95087951"
           d="m 420.95938,209.22409 -6.77873,-27.05921 h 4.34582 l 4.25295,19.24046 h 0.0743 l 5.25584,-19.24046 h 2.95293 l 5.25583,19.24046 h 0.0743 l 4.25296,-19.24046 h 4.34582 l -6.77874,27.05921 h -3.41722 l -5.18155,-19.50046 h -0.0743 l -5.16298,19.50046 z" />
        <path
           inkscape:connector-curvature="0"
           id="path5087"
           style="letter-spacing:-2.64583325px;stroke-width:0.95087951"
           d="M 459.62252,201.05247 H 447.6251 q 0,2.3772 1.28146,3.5658 1.30003,1.1886 3.30579,1.1886 2.39577,0 4.23438,-1.85719 l 2.80436,2.39577 q -1.43004,1.67147 -3.23151,2.39577 -1.7829,0.70573 -3.73294,0.70573 -2.9715,0 -5.75728,-1.9129 -2.78578,-1.93147 -2.78578,-7.87447 0,-5.62727 2.56291,-7.78161 2.58149,-2.15434 5.38585,-2.15434 3.17579,0 5.55298,2.21005 2.3772,2.19148 2.3772,5.92443 z m -11.99742,-3.19436 h 8.13447 q -0.0928,-2.17291 -1.22574,-3.32436 -1.13288,-1.15146 -2.84149,-1.15146 -1.72719,0 -2.87864,1.15146 -1.13289,1.15145 -1.1886,3.32436 z" />
        <path
           inkscape:connector-curvature="0"
           id="path5089"
           style="letter-spacing:-2.64583325px;stroke-width:0.95087951"
           d="m 461.0625,209.22409 v -27.05921 h 3.88152 v 9.84309 q 1.07717,-1.02145 2.26577,-1.65289 1.20717,-0.63145 2.71149,-0.63145 1.76433,0 3.04579,0.72431 1.28146,0.70573 2.11719,1.78289 0.79859,1.04003 1.07717,2.43292 0.29715,1.37432 0.29715,4.90297 0,3.5658 -0.29715,4.97726 -0.27858,1.39289 -1.07717,2.41434 -0.83573,1.09574 -2.11719,1.80148 -1.28146,0.68715 -3.04579,0.68715 -2.9715,0 -4.97726,-2.22862 v 2.00576 z m 7.68875,-15.61894 q -2.73006,0 -3.26865,1.95005 -0.53858,1.95004 -0.53858,4.01152 0,2.11719 0.53858,4.06724 0.53859,1.95005 3.26865,1.95005 2.73007,0 3.26865,-1.87576 0.55716,-1.87576 0.55716,-4.14153 0,-2.21005 -0.55716,-4.08581 -0.53858,-1.87576 -3.26865,-1.87576 z" />
        <path
           inkscape:connector-curvature="0"
           id="path5091"
           style="letter-spacing:-2.64583325px;stroke-width:0.95087951"
           d="m 480.61333,209.22409 v -23.41912 h -7.41017 v -3.64009 h 18.92473 v 3.64009 h -7.41017 v 23.41912 z" />
        <path
           inkscape:connector-curvature="0"
           id="path5093"
           style="letter-spacing:-2.64583325px;stroke-width:0.95087951"
           d="m 488.21546,202.76108 v -12.81459 h 3.88152 v 11.49599 q 0,1.96862 1.07717,3.06436 1.09574,1.07717 2.7672,1.07717 1.61576,0 2.69293,-1.07717 1.09574,-1.09574 1.09574,-3.06436 v -11.49599 h 3.88152 v 19.2776 h -3.88152 v -2.0429 h -0.0743 q -1.80147,2.26576 -4.97726,2.26576 -2.28434,0 -4.38296,-1.69003 -2.08005,-1.70862 -2.08005,-4.99584 z" />
        <path
           inkscape:connector-curvature="0"
           id="path5095"
           style="letter-spacing:-2.64583325px;stroke-width:0.95087951"
           d="m 505.99868,209.22409 v -19.2776 h 3.88152 v 2.06148 h 0.0743 q 1.80147,-2.28434 5.01441,-2.28434 2.24719,0 4.32724,1.70861 2.09862,1.70862 2.09862,4.97726 v 12.81459 h -3.88152 v -11.47741 q 0,-1.95005 -1.09574,-3.04579 -1.07717,-1.09574 -2.69292,-1.09574 -1.67147,0 -2.76721,1.09574 -1.07717,1.09574 -1.07717,3.04579 v 11.47741 z" />
        <path
           inkscape:connector-curvature="0"
           id="path5097"
           style="letter-spacing:-2.64583325px;stroke-width:0.95087951"
           d="m 538.71368,201.05247 h -11.99742 q 0,2.3772 1.28146,3.5658 1.30003,1.1886 3.30579,1.1886 2.39577,0 4.23438,-1.85719 l 2.80436,2.39577 q -1.43004,1.67147 -3.23151,2.39577 -1.7829,0.70573 -3.73294,0.70573 -2.9715,0 -5.75728,-1.9129 -2.78578,-1.93147 -2.78578,-7.87447 0,-5.62727 2.56291,-7.78161 2.58149,-2.15434 5.38585,-2.15434 3.17579,0 5.55298,2.21005 2.3772,2.19148 2.3772,5.92443 z m -11.99742,-3.19436 h 8.13447 q -0.0928,-2.17291 -1.22574,-3.32436 -1.13288,-1.15146 -2.84149,-1.15146 -1.72719,0 -2.87864,1.15146 -1.13289,1.15145 -1.1886,3.32436 z" />
        <path
           inkscape:connector-curvature="0"
           id="path5099"
           style="letter-spacing:-2.64583325px;stroke-width:0.95087951"
           d="m 540.15366,209.22409 v -19.2776 h 3.88152 v 2.06148 h 0.0743 q 1.80147,-2.28434 5.0144,-2.28434 2.11719,0 4.0301,1.48575 l -2.80436,3.34294 q -1.26288,-0.94717 -2.56291,-0.94717 -1.43004,0 -2.60006,0.96574 -1.15146,0.94716 -1.15146,3.06436 v 11.58884 z" />
      </g>
      <g
         transform="matrix(0.83411904,0,0,0.83411904,60.450313,50.235496)"
         id="g5038">
        <path
           style="color:#000000;font-style:normal;font-variant:normal;font-weight:normal;font-stretch:normal;font-size:medium;line-height:normal;font-family:sans-serif;font-variant-ligatures:normal;font-variant-position:normal;font-variant-caps:normal;font-variant-numeric:normal;font-variant-alternates:normal;font-feature-settings:normal;text-indent:0;text-align:start;text-decoration:none;text-decoration-line:none;text-decoration-style:solid;text-decoration-color:#000000;letter-spacing:normal;word-spacing:normal;text-transform:none;writing-mode:lr-tb;direction:ltr;text-orientation:mixed;dominant-baseline:auto;baseline-shift:baseline;text-anchor:start;white-space:normal;shape-padding:0;clip-rule:nonzero;display:inline;overflow:visible;visibility:visible;opacity:1;isolation:auto;mix-blend-mode:normal;color-interpolation:sRGB;color-interpolation-filters:linearRGB;solid-color:#000000;solid-opacity:1;vector-effect:none;fill:#f7f7f7;fill-opacity:1;fill-rule:evenodd;stroke:#030303;stroke-width:0.75590551;stroke-linecap:butt;stroke-linejoin:miter;stroke-miterlimit:4;stroke-dasharray:none;stroke-dashoffset:0;stroke-opacity:0.47244095;filter:url(#filter1127);color-rendering:auto;image-rendering:auto;shape-rendering:auto;text-rendering:auto;enable-background:accumulate"
           d="m 23.162109,114.76758 c -0.168316,0.003 -0.331287,0.0231 -0.484375,0.0645 -0.612351,0.16517 -1.001847,0.50354 -1.30664,0.82813 -1.219174,1.29838 -1.764006,3.07594 -2.451172,5.39453 -0.687166,2.31855 -1.311206,5.07372 -1.816406,7.77343 -0.827721,4.42322 -0.525083,9.03564 0.509765,13.44336 -1.862853,1.31222 -3.335164,2.73976 -6.193359,3.80079 l 1.195312,3.21875 c 2.315515,-0.85954 4.38776,-1.80094 6.238282,-2.89258 0.264502,0.58847 0.231163,1.28018 0.552734,1.84375 0.440996,0.77284 0.601675,1.60804 0.953125,2.41406 -0.953487,1.12751 -1.916827,2.09994 -2.767578,3.30859 -1.861662,2.64488 -3.390597,5.37327 -3.396485,8.22266 -0.0029,1.42469 0.469738,2.90191 1.50586,4.05273 1.036121,1.15079 2.532375,1.95534 4.451172,2.49415 0.915215,0.257 1.925535,0.21162 2.767578,-0.17579 0.842043,-0.38713 1.475484,-1.04632 1.935547,-1.78711 0.920124,-1.48161 1.288134,-3.35847 1.365234,-5.51367 0.105808,-2.9577 -0.683755,-6.44743 -1.927734,-9.95117 0.652161,-0.7333 1.269673,-1.57638 1.882812,-2.23633 0.941215,-1.01306 1.803075,-1.91848 2.496094,-2.6875 0.03803,-0.0423 0.05103,-0.0705 0.08789,-0.11133 0.03318,0.11226 -0.01654,0.25878 0.02148,0.36914 0.309766,0.89711 0.844093,1.81371 1.808594,2.36329 0.9645,0.54958 2.176481,0.53669 3.255859,0.16211 1.955916,-0.679 3.209056,-2.14063 4.214844,-3.66211 0.04804,0.17007 0.04245,0.39873 0.0957,0.5625 0.269405,0.82828 0.59558,1.58815 1.181641,2.25781 0.586065,0.66966 1.678515,1.22196 2.732421,1.05664 1.873187,-0.29367 3.455745,-1.68346 4.953126,-3.45508 0.691313,1.29434 1.464107,2.46106 2.589843,3.0332 1.325224,0.67352 2.881051,0.60731 4.185547,0.0586 1.669467,-0.70209 2.870491,-2.81178 4.185547,-4.57617 1.765973,3.04199 4.29598,5.11516 7.220703,5.07812 2.146299,-0.0265 3.653703,-1.63264 4.583984,-3.34375 0.4076,-0.74971 0.557892,-1.68233 0.847657,-2.53125 0.275678,0.90864 0.357898,1.90471 0.820312,2.70117 1.008545,1.73719 2.913439,3.1907 5.210938,2.96094 2.249185,-0.22488 3.909125,-1.77129 4.886719,-3.5293 0.311433,-0.56001 0.345098,-1.23757 0.568359,-1.8457 0.164712,0.97909 0.208133,1.21014 0.369141,2.27344 -1.937114,2.92377 -3.682839,5.3555 -5.232422,8.51953 -1.42145,2.90241 -2.442982,5.72158 -2.119141,8.42969 0.161915,1.35405 0.732647,2.68558 1.771484,3.69922 1.038841,1.01366 2.459918,1.6808 4.199219,2.05078 1.617902,0.34431 3.345372,-0.42476 4.230469,-1.65235 0.885097,-1.22759 1.277425,-2.73723 1.521484,-4.47461 0.488115,-3.47474 0.256626,-7.95457 -0.222656,-12.49609 -0.17692,-1.67626 -0.322319,-1.75328 -0.552734,-3.38086 1.379512,-2.08263 2.89494,-4.52032 3.787109,-6.15039 l -3.011719,-1.65234 c -0.326627,0.59678 -1.150971,1.89138 -1.617187,2.62695 -0.683985,-3.82636 -1.593746,-9.76563 -1.59375,-9.76563 l -3.396485,0.48047 c 0,0 0.207788,3.52395 -0.324218,7.02735 -0.266004,1.75169 -0.733196,3.4701 -1.38086,4.63476 -0.647663,1.1647 -1.27274,1.69213 -2.222656,1.78711 -0.901587,0.0903 -1.277874,-0.20393 -1.896484,-1.26953 -0.618607,-1.06552 -1.097153,-2.83321 -1.365235,-4.66602 -0.536164,-3.66561 -0.326172,-7.52148 -0.326172,-7.52148 4e-6,-1.1e-4 0,-0.0312 0,-0.0312 l -3.439453,-0.16992 v 0.0234 c 0,0 -0.162632,3.7543 -0.9375,7.43359 -0.387432,1.83969 -0.943826,3.64637 -1.59375,4.8418 -0.649927,1.19546 -1.167178,1.54515 -1.609375,1.55078 -1.53558,0.0189 -3.347485,-1.12625 -4.708984,-3.94922 -0.0412,-0.0854 -0.04978,-0.23616 -0.08984,-0.32422 1.822477,-3.42746 3.290924,-7.72179 4.023438,-12.35742 l 0.02148,-0.125 v -0.12695 c 0.01739,-2.00799 -0.104483,-4.50209 -0.353516,-6.79883 -0.249033,-2.29678 -0.533646,-4.28002 -1.210937,-5.76367 -0.169323,-0.37078 -0.356256,-0.73136 -0.759766,-1.10743 -0.40351,-0.37606 -1.272407,-0.73424 -2.023437,-0.53125 -0.75103,0.20296 -1.134716,0.66516 -1.410156,1.0625 -0.275452,0.39735 -0.4704,0.8162 -0.664063,1.32032 -0.77466,2.01641 -1.474995,5.45842 -2.287109,11.42773 -0.671403,4.93497 -0.123607,8.89428 0.929687,12.22461 -1.465625,2.36784 -3.105058,4.36712 -4.164062,4.8125 -0.616173,0.25928 -0.915414,0.2436 -1.291016,0.0527 -0.375609,-0.19086 -0.935111,-0.72042 -1.46875,-1.9121 -0.126501,-0.28234 -0.07589,-1.39896 -0.193359,-1.75 1.905456,-3.39372 3.563261,-7.66506 4.246093,-12.83008 0.374741,-2.83457 0.257609,-5.67704 -0.15625,-8.07618 -0.413873,-2.39913 -0.909999,-4.29343 -2.257812,-5.63085 -0.336945,-0.33449 -0.7726,-0.65676 -1.367188,-0.79883 -0.594587,-0.14211 -1.308597,-0.0187 -1.822265,0.27344 -1.027333,0.582 -1.453012,1.46805 -1.867188,2.57617 -0.828351,2.2162 -1.38194,5.72247 -1.662109,11.34765 v 0.0215 0.0156 c -0.166262,5.94807 0.648487,9.13807 1.476562,12.34961 -1.657878,2.62749 -3.471137,4.02153 -4.326171,4.26758 -0.105903,-0.17991 -0.213118,-0.3384 -0.345704,-0.74609 -0.375874,-1.15548 -0.653487,-3.00792 -0.804687,-4.88672 -0.3024,-3.75765 -0.169922,-7.65625 -0.169922,-7.65625 H 40.4375 c -0.0017,-0.0113 0,-0.30274 0,-0.30274 l -3.417969,0.18555 c 0,0 0.01714,0.58661 0.01563,0.63477 0.0388,0.30122 0.383192,2.80607 -0.01563,5.82421 -0.211026,1.59704 -0.637203,3.21698 -1.335937,4.48047 -0.698734,1.26346 -1.593186,2.16063 -2.958985,2.63477 -0.46158,0.16025 -0.460141,0.0837 -0.435547,0.0977 0.02461,0.0151 -0.113985,-0.0741 -0.259765,-0.49609 -0.291564,-0.84438 -0.383156,-2.68384 -0.228516,-4.60547 0.109225,-1.35723 0.270553,-1.60458 0.488281,-2.85742 0.740656,-3.30981 0.929688,-5.83789 0.929688,-5.83789 l -3.373047,-0.24414 c 0,0 -0.557965,3.23796 -0.998047,5.86133 -0.385831,1.51234 -0.611233,2.89659 -1.652344,4.93164 0.02687,-0.0525 -0.433129,0.59677 -1.078124,1.3125 -0.644995,0.71573 -1.509873,1.62251 -2.464844,2.65039 -0.251343,0.27061 -0.534081,0.66682 -0.796875,0.95312 -0.19338,-0.37682 -0.247105,-0.77319 -0.458985,-1.14453 -0.405507,-0.71062 -0.413542,-1.64881 -0.714843,-2.42773 0.756722,-0.64668 1.664797,-1.17227 2.287109,-1.93555 2.641587,-3.23992 3.845377,-7.53601 3.558594,-13.13867 -0.286738,-5.60202 -0.719062,-9.07723 -1.365235,-11.25 -0.323277,-1.08771 -0.583278,-1.94152 -1.580078,-2.62305 -0.3738,-0.25557 -0.914974,-0.40617 -1.419922,-0.39648 z m 111.792971,1.83008 c 0,0 -0.0137,0.13167 -0.0137,0.13281 0,0 -0.27662,3.46841 -0.76758,8.00195 -1.36157,-0.11423 -2.77427,-0.13581 -4.23047,0.33203 l 1.04883,3.27735 c 0.74901,-0.24067 1.66821,-0.26503 2.77929,-0.18946 -0.1185,0.97905 -0.22373,1.92588 -0.35937,2.93555 -0.49422,3.67877 -1.0963,7.44682 -1.79297,10.41602 -0.34832,1.48459 -0.72723,2.77394 -1.0918,3.71289 -0.15065,0.38797 -0.18602,0.37135 -0.32617,0.61914 -0.29242,-1.02603 -0.56585,-2.55909 -0.68555,-4.36914 -0.27129,-4.10283 -0.0664,-8.69532 -0.0664,-8.69532 h -0.008 c -1.6e-4,-0.003 0.008,-0.16406 0.008,-0.16406 l -3.4336,0.008 c 0,0 1.4e-4,0.16104 0,0.16407 0,0 0.15074,3.50758 -0.45703,7.0039 -0.30387,1.74815 -0.80772,3.46993 -1.49804,4.64453 -0.69033,1.17464 -1.3805,1.73052 -2.40039,1.83789 -0.48618,0.051 -0.65382,-0.024 -0.83985,-0.15624 -0.18603,-0.13153 -0.42218,-0.41158 -0.6289,-0.91407 -0.41345,-1.00505 -0.61177,-2.79294 -0.56836,-4.65039 0.0868,-3.7149 0.96679,-7.65625 0.96679,-7.65625 h -0.008 c 0.002,-0.10205 0.0513,-0.25411 0.0527,-0.35351 l -3.39649,-0.40625 c 0,0 -0.0396,0.33915 -0.043,0.35351 -1.3e-4,6.1e-4 1.5e-4,0.0156 0,0.0156 -0.0455,2.92747 -0.60188,7.54642 -1.52929,10.80664 -0.46433,1.63226 -1.09047,2.93309 -1.45313,3.35156 -1.19052,-1.63695 -2.15003,-4.25794 -1.60156,-5.82422 0.31362,-4.09122 -0.17279,-7.01793 -1.28516,-9.14648 -1.11235,-2.1286 -2.91887,-3.33383 -4.65039,-3.78711 -3.46304,-0.90656 -6.67383,0.62109 -6.67383,0.62109 l 1.37305,3.15235 c 0,0 2.49176,-0.95065 4.42969,-0.44336 0.96896,0.2536 1.78328,0.73356 2.47265,2.05273 0.23517,0.45003 0.14391,1.79396 0.31055,2.48633 -0.85842,-0.53273 -1.62275,-1.34952 -2.5918,-1.42383 -1.70852,-0.13115 -3.45468,0.56315 -4.6289,1.94922 -1.17423,1.38603 -1.760874,3.37288 -1.638674,5.74219 0.119962,2.32599 0.799464,4.24286 1.935544,5.61914 1.13608,1.37627 2.78073,2.17953 4.46485,2.0957 1.68411,-0.0839 3.2901,-1.0353 4.42187,-2.57617 0.14408,0.29858 0.17173,0.96079 0.33984,1.19531 0.35381,0.49349 0.77668,0.84797 1.18165,1.05664 0.5237,0.17425 1.57434,0.73953 2.50195,0.76758 0.98065,0.004 1.71188,-0.68002 2.23633,-1.28516 0.37047,-0.42754 0.4949,-1.12789 0.76757,-1.64648 0.34783,0.59652 0.64705,1.22883 1.24805,1.6543 0.87474,0.61923 2.03429,0.88977 3.19531,0.76757 2.19368,-0.23093 3.78166,-1.71249 4.82227,-3.38867 0.10072,0.40456 0.0862,0.94947 0.2207,1.31446 0.30267,0.82087 0.66085,1.64932 1.6543,2.20703 0.49672,0.27893 1.1752,0.39577 1.75586,0.28125 0.58066,-0.11452 1.04271,-0.3915 1.43945,-0.7168 0.93548,-0.76706 1.36614,-1.73624 1.82422,-2.91602 0.10609,-0.27326 0.17914,-0.66961 0.2793,-0.96679 0.16448,0.60892 0.2289,1.32653 0.48828,1.85351 0.57744,1.17313 1.67842,2.30817 3.16602,2.41211 1.04393,0.073 2.15351,-0.34754 2.82812,-1.05469 0.62021,-0.65 0.89601,-1.41207 1.11328,-2.17773 1.23121,1.5823 2.85622,2.97368 5.07227,3.32227 2.56018,0.40267 4.83622,-0.81547 5.98633,-2.6504 1.1501,-1.83496 1.47313,-4.11198 1.29296,-6.38476 -0.12536,-1.58132 -0.86479,-3.0252 -1.52148,-4.47461 0.1149,0.0265 0.20007,0.0823 0.31641,0.10352 1.18115,0.21618 2.51292,-0.1711 3.74414,-0.76758 -0.16215,4.77271 -0.35763,9.82295 -0.35547,13.50976 2e-5,0.0382 -0.008,0.1005 -0.008,0.13867 l 3.4336,0.13282 c 0,0 0.36515,-4.56552 1.30664,-9.04883 0.47074,-2.24168 1.10619,-4.46178 1.81641,-5.95703 0.35512,-0.74763 0.72835,-1.30349 1.00976,-1.58008 0.28142,-0.27666 0.35299,-0.26128 0.40625,-0.25977 0.0946,0.003 0.0553,-0.0381 0.22266,0.16407 0.16732,0.2022 0.41401,0.6781 0.60547,1.34961 0.3829,1.34305 0.56517,3.39531 0.58203,5.45507 0.017,2.05977 -0.11074,4.1418 -0.23633,5.69141 -0.0628,0.7748 -0.12597,1.42221 -0.16992,1.86914 -0.0219,0.22337 -0.039,0.3904 -0.0508,0.52344 -0.006,0.0665 -0.0118,0.11304 -0.0156,0.19922 -0.002,0.0431 -0.0141,0.0523 0.008,0.27343 0.005,0.0552 0.0525,0.27269 0.0527,0.27344 1.9e-4,7.6e-4 0.55247,0.87673 0.55273,0.87696 2.7e-4,2.2e-4 2.24381,-0.0215 2.24414,-0.0215 3.4e-4,-3e-4 0.40584,-0.52456 0.40625,-0.52539 l 0.13282,-0.26562 0.0371,-0.29493 c 0,0 0.53546,-4.2785 1.55078,-8.4375 0.50765,-2.07949 1.14754,-4.1287 1.81445,-5.47656 0.33347,-0.67393 0.67903,-1.1588 0.89453,-1.36523 0.0147,-0.0141 0.007,-0.006 0.0195,-0.0176 -0.002,-0.003 -0.004,-0.009 -0.006,-0.0117 -0.13704,-0.21732 -0.054,-0.10118 0.0234,-0.0898 0.0969,0.0116 0.14738,-0.0534 -0.0176,0.10156 0.137,0.22142 0.3313,0.72409 0.4668,1.4043 0.27405,1.37593 0.33868,3.40904 0.26562,5.4414 -0.14607,4.06477 -0.50195,7.4336 -0.50195,7.4336 v 0 c 0,0 1.20533,2.68833 1.41797,2.71679 0.21264,0.0302 0.50258,0.0578 0.84766,0.0586 0.69014,0.002 1.62415,-0.0976 2.62109,-0.52539 1.02538,-0.44002 2.02218,-1.29872 2.82812,-2.56055 1.00932,1.57119 2.50039,2.95096 4.8418,3.36523 1.55601,0.27553 2.86674,-0.30454 3.96484,-1.13672 0.13134,0.24076 0.21768,0.48754 0.47852,0.7168 0.40396,0.3549 1.06284,0.59415 1.63867,0.56055 1.63684,-0.0956 3.08377,-0.89587 4.19336,-2.01563 1.1096,-1.11976 1.96097,-2.54998 2.67969,-4.16992 0.0412,-0.093 0.0417,-0.23011 0.082,-0.32422 0.0434,0.23925 0.001,0.60476 0.0508,0.83399 0.33294,1.54325 0.76542,2.87301 1.66797,3.9414 0.90256,1.0684 2.63859,1.63843 4.08984,1.15235 1.69059,-0.56625 2.92477,-1.92589 4.28907,-3.08594 1.77552,1.33663 3.6509,2.6494 5.43359,3.12305 0.57809,0.15345 1.28547,0.0975 1.83789,-0.16407 0.55242,-0.26154 0.92464,-0.65429 1.20313,-1.04101 0.55697,-0.77341 0.84127,-1.60514 1.1289,-2.53906 0.13992,-0.45427 0.30905,-1.02374 0.44336,-1.51954 0.38309,0.8702 0.52659,1.83229 1.09961,2.57618 1.24758,1.61964 3.22127,2.96444 5.49219,2.53906 1.66154,-0.31106 3.04749,-1.18668 3.95703,-2.36914 0.107,-0.13909 0.10379,-0.33549 0.19922,-0.48047 0.22443,0.50438 0.16887,1.21542 0.52344,1.58789 0.9221,0.96869 2.09557,1.391 3.13086,1.57813 2.07056,0.37417 3.94921,-0.10938 3.94921,-0.10938 l -0.7832,-3.35156 c 0,0 -1.39969,0.28285 -2.55273,0.0742 -0.57652,-0.10432 -1.00281,-0.31064 -1.24805,-0.56836 -0.24525,-0.25777 -0.46885,-0.61113 -0.42773,-1.60938 0.22526,-5.46656 0.69336,-27.32812 0.69335,-27.32812 l -3.38085,-0.47266 c 0,0 -0.0605,0.29277 -0.10352,0.69336 -0.043,0.40063 -0.10556,1.05482 -0.16992,2.15625 -0.11229,1.92144 -0.24906,6.11506 -0.37695,11.74414 -1.30891,-0.23811 -2.62462,-0.60184 -3.70508,-0.31055 -4.79549,1.29285 -6.30351,4.55337 -8.15039,7.73633 -1.28201,2.20946 -1.38796,4.82343 -1.88086,6.42383 -0.18418,0.59803 -0.3386,0.88306 -0.47266,1.15039 -0.95029,-0.30916 -1.99654,-1.0833 -3.07031,-1.7793 1.63469,-1.99653 2.94621,-4.14479 3.48242,-6.14843 0.88255,-3.29783 0.97504,-5.86076 0.35547,-7.84766 -0.61958,-1.9869 -2.34985,-3.4594 -4.23828,-3.38086 -1.88844,0.0786 -3.49338,1.30575 -4.75977,3.14453 -1.26638,1.83878 -2.22225,4.39255 -2.62109,7.63281 -0.31752,2.57968 0.88669,4.77271 2.43555,6.62891 -0.95277,0.73009 -1.83131,1.73453 -2.80469,2.06055 -0.38247,0.12812 -0.11641,0.17982 -0.36914,-0.11914 -0.2527,-0.29934 -0.66528,-1.18743 -0.9375,-2.44922 -0.54444,-2.52355 -0.68439,-6.4253 -0.57617,-10.4082 0.009,-0.32089 0.0412,-0.33687 0.0527,-0.65821 0.28554,-1.83142 0.50245,-3.63294 0.67578,-5.33984 1.17802,0.0678 2.3975,0.0931 3.66406,-0.0566 l -0.39843,-3.41016 c -0.92879,0.10977 -1.93396,0.0937 -2.96485,0.0391 0.28811,-3.93921 0.31338,-6.76328 0.31445,-6.88867 3e-5,-0.003 0.0156,-0.21484 0.0156,-0.21484 l -3.42578,-0.24414 c 0,0 -0.0153,0.2122 -0.0156,0.21484 -0.0121,0.0889 -0.32666,4.00189 -0.5625,6.875 -1.49121,-0.0938 -2.98529,-0.0972 -4.44922,0.37305 l 1.04883,3.27929 c 0.72686,-0.23358 1.82032,-0.27552 3.11914,-0.21679 -0.0485,0.6174 -0.061,0.71842 -0.10742,1.32422 -0.17299,1.75736 -0.0194,1.86721 -0.31055,3.73437 -0.59886,3.8411 -1.49913,7.67936 -2.71679,10.42383 -0.60883,1.37227 -1.29994,2.45972 -1.97852,3.14453 -0.37504,0.37848 -0.72693,0.39263 -1.07812,0.55274 -0.006,-0.0763 -0.0173,-0.0715 -0.0215,-0.1543 -0.0453,-0.90595 0.0905,-2.31062 0.22071,-3.66992 0.0291,-0.19918 0.14429,-0.36922 0.16992,-0.56836 0.11293,-0.87719 0.13326,-1.55604 0.19336,-2.38282 0.38538,-2.51988 0.86328,-5.40429 0.86328,-5.40429 l 0.55273,-2.72461 -2.67968,0.72461 c -0.48999,0.1319 -0.63753,0.43856 -0.86329,0.71484 -1.11418,-0.15194 -2.04637,-0.46004 -4.28125,0.0234 -1.63954,0.35414 -3.66417,0.85216 -4.85742,2.48828 -1.45171,1.99052 -2.32639,4.14723 -2.75976,6.23047 -0.6794,3.26591 -1.42755,4.11965 -2.31836,4.50195 -0.0736,0.0302 -0.13303,0.0196 -0.20703,0.0449 0.19536,-1.37627 0.5015,-3.17228 0.61914,-6.44531 0.078,-2.17088 0.0404,-4.36652 -0.33203,-6.23633 -0.18622,-0.93494 -0.44292,-1.80026 -0.9375,-2.58398 -0.49459,-0.78372 -1.3822,-1.53406 -2.47266,-1.66797 -1.11725,-0.1372 -2.14793,0.39717 -2.82617,1.04688 -0.67825,0.6497 -1.16463,1.43915 -1.60352,2.32617 -0.17975,0.36321 -0.25771,0.87374 -0.41992,1.26953 -0.0579,-0.25814 -0.0251,-0.5788 -0.0957,-0.82617 -0.2716,-0.95256 -0.63075,-1.83762 -1.26172,-2.59961 -0.63098,-0.76196 -1.65563,-1.36962 -2.76953,-1.40235 -1.15531,-0.034 -2.19189,0.52852 -2.91602,1.24024 -0.53611,0.52694 -0.89584,1.21197 -1.26953,1.89062 0.0363,-0.92991 0.0367,-1.9032 0.0742,-2.76172 l -3.41797,-0.32421 c -0.3301,2.25562 -0.95369,3.22291 -1.39453,3.58007 -0.44084,0.35717 -0.94411,0.43489 -1.91211,0.25782 -0.968,-0.17726 -2.21236,-0.65942 -3.49219,-1.12891 -1.21979,-0.44742 -2.48682,-0.87884 -3.91211,-0.8418 -0.0295,-6.4e-4 -0.0366,-0.0449 -0.0664,-0.0449 h -0.008 c -0.014,-1.1e-4 -0.0153,0.0234 -0.0293,0.0234 -0.0276,0.001 -0.0466,-0.0234 -0.0742,-0.0234 l -0.0371,0.008 c -2.01324,0.15648 -3.44804,1.25497 -4.49414,2.57618 -0.18675,0.22526 -0.60845,0.18447 -0.76172,0.42968 -0.1163,0.18596 -0.0457,0.44606 -0.14648,0.64063 -0.93399,1.86349 -1.19593,3.95817 -1.38868,5.90625 -0.19275,1.94812 -0.31,3.78662 -0.58984,4.84961 -0.13992,0.53147 -0.32337,0.82313 -0.36914,0.87109 -0.0458,0.048 0.11657,0.0151 -0.10352,0 0.0155,0.001 -0.0285,0.0866 -0.31836,-0.50195 -0.28973,-0.58866 -0.57414,-1.68113 -0.75195,-3.04883 -0.35562,-2.73532 -0.32617,-6.5606 -0.10351,-10.37891 0.0249,-0.42784 0.0587,-0.42895 0.0879,-0.85546 0.15546,-1.15721 0.27594,-2.13724 0.38867,-3.08008 1.0341,0.07 2.14506,0.0904 3.33984,-0.0508 l -0.39844,-3.41797 c -0.86115,0.10163 -1.71097,0.0954 -2.5625,0.0449 0.17114,-1.73241 0.27413,-3.06569 0.37696,-4.27344 0.10809,-0.7663 0.38476,-3.64648 0.38476,-3.64648 9e-5,-0.001 0.0137,-0.13477 0.0137,-0.13477 z m -85.541018,2.98828 c 0.297336,0.68088 0.578672,1.06127 0.796876,2.32617 0.353914,2.05168 0.454729,4.60782 0.132812,7.04297 -0.285014,2.15577 -1.167174,3.43264 -1.734375,5.26953 -0.129184,-1.93338 -0.623064,-2.42577 -0.552734,-4.97461 0.25576,-5.10028 0.825381,-8.03853 1.357421,-9.66406 z m -26.396484,0.50976 c 0.405767,1.77362 0.825227,4.32109 1.070313,9.10938 0.258357,5.04729 -0.73869,8.29318 -2.783203,10.80078 -0.146627,0.1799 -0.549644,0.26195 -0.708985,0.43555 -0.648189,-3.54686 -0.802526,-7.28486 -0.111328,-10.97852 0.488695,-2.6115 1.097923,-5.28614 1.734375,-7.43359 0.306576,-1.03442 0.489746,-1.22482 0.798828,-1.9336 z m 37.492188,2.02344 c 0.03893,0.288 0.09284,0.35148 0.125,0.64844 0.227489,2.09798 0.333554,4.42576 0.324218,6.24609 -0.364913,2.267 -1.263764,4.00036 -1.955078,6.00781 -0.101669,-1.77917 -0.199553,-3.57975 0.0957,-5.75 0.535703,-3.93758 0.964577,-5.29773 1.410157,-7.15234 z m 150.693354,8.37109 c 0.31529,-0.0113 0.48608,-0.047 0.80469,0.97461 0.31862,1.02176 0.38493,3.03557 -0.39062,5.9336 -0.33816,1.26364 -1.41593,3.07444 -2.70899,4.71094 -0.99033,-1.26123 -1.98435,-2.55257 -1.82422,-3.85352 0.34356,-2.79126 1.16506,-4.83144 2.03711,-6.09766 0.87207,-1.26625 1.76677,-1.65485 2.08203,-1.66797 z m 14.44922,4.01368 c 0.82583,-0.0671 1.781,0.10401 2.81641,0.31054 -0.27798,2.87532 -0.44138,5.77794 -0.84766,7.69336 -0.25791,1.21599 -0.62331,2.11986 -1.06445,2.69336 -0.44113,0.57351 -0.91594,0.90773 -1.86719,1.08594 -0.66189,0.12397 -1.32865,-0.21184 -2.13281,-1.25586 -0.80417,-1.04398 -1.47218,-2.67118 -1.72656,-4.11133 -0.25315,-1.43323 0.55464,-2.79613 1.26172,-4.0957 0.90871,-1.67016 1.7985,-2.17708 3.56054,-2.32031 z m -79.69726,0.0312 c 1.21826,0.0378 2.17035,0.62245 3.0039,1.8164 0.854,1.22325 1.44336,3.01353 1.58008,4.73828 0.13675,1.72472 -0.20338,3.35618 -0.7832,4.28125 -0.57981,0.92508 -1.10506,1.31026 -2.53125,1.08594 -1.43492,-0.22564 -2.47825,-1.00107 -3.28516,-2.19336 -0.78634,-1.1619 -1.2395,-2.72956 -1.33593,-4.25781 0.18844,-1.42261 0.38705,-2.87396 0.83398,-3.76563 0.54312,-1.08362 1.11289,-1.56856 2.51758,-1.70507 z m 43.71484,2.14062 c -0.0556,0.7818 -0.14951,1.70471 -0.21289,2.5918 -0.13481,0.8855 -0.19003,0.94065 -0.30273,1.88867 -0.0466,0.39213 -0.0272,0.71851 -0.0664,1.10742 -0.24212,1.46846 -0.55594,2.9146 -1.01953,3.66797 -0.54211,0.88097 -0.76593,1.11241 -1.91992,0.9082 -1.96856,-0.34847 -2.68077,-1.23643 -3.1211,-2.48046 -0.43166,-1.21955 -0.34094,-2.84946 -0.008,-4.04493 0.0242,-0.0608 0.0489,-0.11915 0.0742,-0.17773 0.27666,-0.83977 0.78698,-1.48154 1.60742,-2.02149 0.85886,-0.56522 2.00539,-0.98249 3.15235,-1.24804 0.93288,-0.21619 1.06204,-0.12829 1.8164,-0.19141 z m -83.93164,1.09961 c 1.0869,0.0835 2.38418,1.42603 3.12305,3.82422 -0.2634,1.45886 -0.58604,2.85458 -1.08594,3.53516 -0.64506,0.87821 -1.28316,1.1551 -1.81641,1.18164 -0.53325,0.0265 -1.07965,-0.17833 -1.63867,-0.85547 -0.55902,-0.67722 -1.06812,-1.857 -1.1582,-3.60352 -0.0884,-1.71311 0.33332,-2.762 0.82617,-3.34375 0.49283,-0.58174 1.06692,-0.79063 1.75,-0.73828 z m -22.507811,13.75977 c 0.387564,4.05641 0.598526,8.08803 0.222656,10.76367 -0.203528,1.4488 -0.590854,2.51331 -0.902344,2.94531 -0.311508,0.43204 -0.202268,0.41336 -0.722656,0.30274 -1.291956,-0.27478 -2.055357,-0.70893 -2.509766,-1.15235 -0.454408,-0.44338 -0.680475,-0.92587 -0.767578,-1.6543 -0.174198,-1.45678 0.498277,-3.86621 1.792969,-6.50976 0.785034,-1.60294 1.841657,-3.02231 2.886719,-4.69531 z m -61.431641,2.74609 c 0.683718,2.48882 1.058449,4.89596 0.988281,6.85742 -0.06362,1.77827 -0.456319,3.1737 -0.855468,3.81641 -0.199575,0.32126 -0.365186,0.44097 -0.451172,0.48047 -0.08599,0.0397 -0.134726,0.0663 -0.398438,-0.008 -1.49724,-0.42043 -2.354916,-0.9755 -2.818359,-1.49023 -0.463443,-0.51473 -0.630429,-1.00541 -0.628906,-1.74219 0.003,-1.47356 1.080777,-3.8547 2.769531,-6.2539 0.408139,-0.57986 0.938196,-1.08117 1.394531,-1.66016 z"
           id="path1109"
           transform="matrix(0.26458333,0,0,0.26458333,428.72267,115.28188)"
           inkscape:connector-curvature="0"
           sodipodi:nodetypes="ccccscccccccsccccscccccscccccccccccccccccccccsscccccccccccsccccccccccccccccccccccccsccccccccccccccccccccccccccccsccccccccsccccccccccccccccccccccccccccccccscccccccccccccccccccccscccccccccccccccccccccccccccccccccccccccccccccccccccccccccsccccccccccccccccccccccccsscccccccccccccccccccccccccccccccccccccccsscccccsccccccccccccccscccccccccccccccccccccccccccccccccssccccccccccccscscsccccccsscccccccccccsccccccccccccccccccccccccccccsscccccc" />
        <path
           sodipodi:nodetypes="ccccscccccccsccccscccccscccccccccccccccccccccsscccccccccccsccccccccccccccccccccccccsccccccccccccccccccccccccccccsccccccccsccccccccccccccccccccccccccccccccscccccccccccccccccccccscccccccccccccccccccccccccccccccccccccccccccccccccccccccccsccccccccccccccccccccccccsscccccccccccccccccccccccccccccccccccccccsscccccsccccccccccccccscccccccccccccccccccccccccccccccccssccccccccccccscscsccccccsscccccccccccsccccccccccccccccccccccccccccsscccccc"
           inkscape:connector-curvature="0"
           id="path892"
           d="m 434.85098,145.64747 c -0.0445,7.9e-4 -0.0877,0.006 -0.12816,0.0171 -0.16202,0.0437 -0.26507,0.13323 -0.34571,0.21911 -0.32258,0.34353 -0.46673,0.81385 -0.64854,1.42731 -0.18182,0.61345 -0.34693,1.34242 -0.48059,2.05672 -0.21901,1.17031 -0.13893,2.39068 0.13487,3.55689 -0.49288,0.34719 -0.88243,0.72489 -1.63866,1.00562 l 0.31626,0.85163 c 0.61265,-0.22742 1.16093,-0.4765 1.65055,-0.76533 0.07,0.1557 0.0612,0.33871 0.14624,0.48783 0.11668,0.20448 0.15919,0.42546 0.25218,0.63872 -0.25228,0.29832 -0.50716,0.5556 -0.73225,0.87539 -0.49257,0.69979 -0.8971,1.42168 -0.89866,2.17558 -7.6e-4,0.37695 0.12429,0.7678 0.39843,1.07229 0.27414,0.30448 0.67002,0.51735 1.1777,0.65991 0.24215,0.068 0.50947,0.056 0.73226,-0.0465 0.22279,-0.10243 0.39039,-0.27684 0.51211,-0.47284 0.24345,-0.39201 0.34082,-0.8886 0.36122,-1.45883 0.028,-0.78256 -0.18091,-1.70588 -0.51005,-2.63291 0.17256,-0.19402 0.33594,-0.41709 0.49817,-0.5917 0.24903,-0.26804 0.47706,-0.5076 0.66042,-0.71107 0.0101,-0.0112 0.0135,-0.0187 0.0233,-0.0294 0.009,0.0297 -0.004,0.0685 0.006,0.0977 0.082,0.23736 0.22333,0.47987 0.47852,0.62528 0.25519,0.14541 0.57586,0.142 0.86145,0.0429 0.5175,-0.17966 0.84906,-0.56638 1.11517,-0.96894 0.0127,0.045 0.0112,0.1055 0.0253,0.14883 0.0713,0.21915 0.15758,0.4202 0.31264,0.59738 0.15506,0.17718 0.44411,0.32331 0.72295,0.27957 0.49562,-0.0777 0.91433,-0.44542 1.31052,-0.91416 0.18291,0.34246 0.38737,0.65116 0.68522,0.80254 0.35064,0.1782 0.76228,0.16068 1.10743,0.0155 0.44171,-0.18576 0.75949,-0.74395 1.10743,-1.21078 0.46724,0.80486 1.13664,1.35339 1.91047,1.34359 0.56788,-0.007 0.96671,-0.43197 1.21285,-0.8847 0.10784,-0.19836 0.14761,-0.44512 0.22428,-0.66973 0.0729,0.24041 0.0947,0.50396 0.21704,0.71469 0.26684,0.45963 0.77084,0.8442 1.37872,0.78341 0.5951,-0.0595 1.03429,-0.46865 1.29295,-0.93379 0.0824,-0.14817 0.0913,-0.32744 0.15038,-0.48834 0.0436,0.25905 0.0551,0.32018 0.0977,0.60151 -0.51253,0.77358 -0.97442,1.41698 -1.38442,2.25413 -0.37609,0.76793 -0.64637,1.51383 -0.56069,2.23035 0.0428,0.35826 0.19385,0.71056 0.46871,0.97875 0.27486,0.2682 0.65085,0.44471 1.11104,0.54261 0.42807,0.0911 0.88513,-0.11239 1.11931,-0.43719 0.23419,-0.3248 0.33799,-0.72422 0.40256,-1.18391 0.12915,-0.91935 0.0679,-2.10464 -0.0589,-3.30625 -0.0468,-0.44351 -0.0853,-0.46389 -0.14624,-0.89452 0.36499,-0.55103 0.76595,-1.196 1.002,-1.62729 l -0.79685,-0.43718 c -0.0864,0.15789 -0.30452,0.50042 -0.42788,0.69504 -0.18097,-1.01239 -0.42168,-2.58382 -0.42168,-2.58382 l -0.89865,0.12712 c 0,0 0.055,0.93238 -0.0858,1.85932 -0.0704,0.46347 -0.19399,0.91813 -0.36535,1.22628 -0.17137,0.30816 -0.33675,0.44771 -0.58808,0.47284 -0.23855,0.0239 -0.33811,-0.0539 -0.50178,-0.33589 -0.16367,-0.28192 -0.29029,-0.74962 -0.36122,-1.23455 -0.14186,-0.96986 -0.0863,-1.99006 -0.0863,-1.99006 0,-3e-5 0,-0.008 0,-0.008 l -0.91002,-0.045 v 0.006 c 0,0 -0.043,0.99332 -0.24805,1.9668 -0.10251,0.48675 -0.24972,0.96477 -0.42168,1.28106 -0.17196,0.3163 -0.30881,0.40882 -0.42581,0.41031 -0.40629,0.005 -0.88569,-0.29799 -1.24592,-1.0449 -0.0109,-0.0226 -0.0132,-0.0625 -0.0238,-0.0858 0.4822,-0.90685 0.87072,-2.04306 1.06453,-3.26957 l 0.006,-0.0331 v -0.0336 c 0.005,-0.53128 -0.0276,-1.19118 -0.0935,-1.79886 -0.0659,-0.60769 -0.14119,-1.13242 -0.32039,-1.52497 -0.0448,-0.0981 -0.0943,-0.1935 -0.20102,-0.29301 -0.10676,-0.0995 -0.33666,-0.19426 -0.53537,-0.14056 -0.19871,0.0537 -0.30023,0.17599 -0.3731,0.28112 -0.0729,0.10514 -0.12446,0.21596 -0.1757,0.34934 -0.20497,0.53351 -0.39026,1.44421 -0.60513,3.02359 -0.17765,1.30571 -0.0327,2.35327 0.24598,3.23442 -0.38778,0.62649 -0.82155,1.15547 -1.10175,1.27331 -0.16302,0.0686 -0.2422,0.0644 -0.34158,0.0139 -0.0994,-0.0505 -0.24741,-0.19061 -0.3886,-0.50591 -0.0335,-0.0747 -0.0201,-0.37014 -0.0512,-0.46302 0.50415,-0.89792 0.94278,-2.02804 1.12344,-3.39462 0.0992,-0.74998 0.0682,-1.50205 -0.0413,-2.13682 -0.1095,-0.63477 -0.24077,-1.13597 -0.59738,-1.48983 -0.0892,-0.0885 -0.20442,-0.17377 -0.36173,-0.21136 -0.15732,-0.0376 -0.34624,-0.005 -0.48214,0.0724 -0.27182,0.15398 -0.38445,0.38842 -0.49403,0.68161 -0.21917,0.58637 -0.36564,1.51407 -0.43977,3.0024 v 0.006 0.004 c -0.044,1.57376 0.17158,2.41779 0.39068,3.26751 -0.43865,0.69519 -0.91841,1.06402 -1.14464,1.12913 -0.028,-0.0476 -0.0564,-0.0895 -0.0915,-0.19741 -0.0994,-0.30572 -0.17291,-0.79584 -0.21291,-1.29294 -0.08,-0.99421 -0.045,-2.02572 -0.045,-2.02572 h -0.004 c -4.5e-4,-0.003 0,-0.0801 0,-0.0801 l -0.90434,0.0491 c 0,0 0.005,0.1552 0.004,0.16794 0.0103,0.0797 0.10138,0.74244 -0.004,1.54099 -0.0558,0.42255 -0.16859,0.85116 -0.35347,1.18546 -0.18487,0.33429 -0.42153,0.57167 -0.78289,0.69712 -0.12213,0.0424 -0.12175,0.0221 -0.11524,0.0258 0.007,0.004 -0.0302,-0.0196 -0.0687,-0.13126 -0.0771,-0.22341 -0.10138,-0.7101 -0.0605,-1.21853 0.0289,-0.3591 0.0716,-0.42455 0.12919,-0.75603 0.19596,-0.87572 0.24598,-1.5446 0.24598,-1.5446 l -0.89245,-0.0646 c 0,0 -0.14763,0.85671 -0.26407,1.55081 -0.10209,0.40014 -0.16172,0.76639 -0.43718,1.30483 0.007,-0.0139 -0.1146,0.1579 -0.28526,0.34727 -0.17065,0.18937 -0.39948,0.42928 -0.65215,0.70124 -0.0665,0.0716 -0.14131,0.17643 -0.21084,0.25218 -0.0512,-0.0997 -0.0654,-0.20457 -0.12144,-0.30282 -0.10729,-0.18802 -0.10942,-0.43625 -0.18914,-0.64234 0.20022,-0.1711 0.44048,-0.31016 0.60513,-0.51211 0.69892,-0.85723 1.01742,-1.9939 0.94155,-3.47627 -0.0759,-1.4822 -0.19026,-2.40169 -0.36122,-2.97657 -0.0855,-0.28779 -0.15433,-0.51369 -0.41806,-0.69401 -0.0989,-0.0676 -0.24209,-0.10747 -0.37569,-0.1049 z m 29.57855,0.48421 c 0,0 -0.004,0.0348 -0.004,0.0351 0,0 -0.0732,0.91768 -0.20309,2.11718 -0.36025,-0.0302 -0.73402,-0.0359 -1.11931,0.0879 l 0.2775,0.86713 c 0.19818,-0.0637 0.44138,-0.0701 0.73536,-0.0501 -0.0314,0.25904 -0.0592,0.50956 -0.0951,0.7767 -0.13076,0.97334 -0.29006,1.9703 -0.47439,2.75591 -0.0922,0.39279 -0.19241,0.73393 -0.28887,0.98236 -0.0399,0.10265 -0.0492,0.0983 -0.0863,0.16382 -0.0774,-0.27147 -0.14971,-0.67709 -0.18138,-1.156 -0.0718,-1.08554 -0.0176,-2.30064 -0.0176,-2.30064 h -0.002 c -4e-5,-7.9e-4 0.002,-0.0434 0.002,-0.0434 l -0.90848,0.002 c 0,0 4e-5,0.0426 0,0.0434 0,0 0.0399,0.92805 -0.12092,1.85311 -0.0804,0.46254 -0.21371,0.91809 -0.39635,1.22887 -0.18265,0.31079 -0.36526,0.45787 -0.63511,0.48628 -0.12863,0.0135 -0.17299,-0.006 -0.22221,-0.0413 -0.0492,-0.0348 -0.1117,-0.1089 -0.16639,-0.24185 -0.1094,-0.26592 -0.16187,-0.73897 -0.15038,-1.23042 0.023,-0.9829 0.25579,-2.02571 0.25579,-2.02571 h -0.002 c 5.3e-4,-0.027 0.0136,-0.0672 0.0139,-0.0935 l -0.89865,-0.10748 c 0,0 -0.0105,0.0897 -0.0114,0.0935 -4e-5,1.6e-4 4e-5,0.004 0,0.004 -0.012,0.77456 -0.15925,1.99665 -0.40463,2.85925 -0.12285,0.43187 -0.28852,0.77605 -0.38447,0.88677 -0.31499,-0.43311 -0.56886,-1.12658 -0.42375,-1.54099 0.083,-1.08247 -0.0457,-1.85683 -0.34003,-2.42001 -0.29431,-0.56319 -0.77228,-0.88207 -1.23041,-1.002 -0.91627,-0.23986 -1.76579,0.16433 -1.76579,0.16433 l 0.36329,0.83406 c 0,0 0.65928,-0.25153 1.17202,-0.11731 0.25637,0.0671 0.47183,0.19409 0.65422,0.54312 0.0622,0.11907 0.0381,0.47465 0.0822,0.65784 -0.22712,-0.14095 -0.42935,-0.35706 -0.68575,-0.37672 -0.45204,-0.0347 -0.91405,0.149 -1.22473,0.51573 -0.31068,0.36672 -0.4659,0.89241 -0.43356,1.51929 0.0317,0.61542 0.21152,1.12259 0.51211,1.48673 0.30059,0.36414 0.73573,0.57667 1.18132,0.55449 0.44559,-0.0222 0.87051,-0.27393 1.16996,-0.68162 0.0381,0.079 0.0454,0.25421 0.0899,0.31626 0.0936,0.13057 0.2055,0.22436 0.31265,0.27957 0.13856,0.0461 0.41654,0.19567 0.66197,0.20309 0.25947,0.001 0.45294,-0.17992 0.5917,-0.34003 0.098,-0.11312 0.13094,-0.29842 0.20308,-0.43563 0.092,0.15783 0.1712,0.32513 0.33022,0.4377 0.23144,0.16384 0.53824,0.23542 0.84542,0.20309 0.58041,-0.0611 1.00057,-0.4531 1.2759,-0.89659 0.0266,0.10704 0.0228,0.25121 0.0584,0.34778 0.0801,0.21719 0.17485,0.43639 0.4377,0.58395 0.13142,0.0738 0.31094,0.10471 0.46457,0.0744 0.15363,-0.0303 0.27588,-0.10358 0.38085,-0.18965 0.24752,-0.20295 0.36146,-0.45938 0.48266,-0.77153 0.0281,-0.0723 0.0474,-0.17717 0.0739,-0.2558 0.0435,0.16111 0.0606,0.35098 0.12919,0.49041 0.15278,0.31039 0.44408,0.6107 0.83768,0.6382 0.2762,0.0193 0.56978,-0.0919 0.74827,-0.27905 0.1641,-0.17198 0.23707,-0.37361 0.29456,-0.57619 0.32575,0.41865 0.7557,0.78678 1.34203,0.87902 0.67739,0.10654 1.27959,-0.21576 1.58389,-0.70126 0.30429,-0.4855 0.38976,-1.08796 0.34209,-1.6893 -0.0332,-0.41839 -0.22881,-0.80041 -0.40255,-1.1839 0.0304,0.007 0.0529,0.0218 0.0837,0.0274 0.31251,0.0572 0.66488,-0.0453 0.99064,-0.20309 -0.0429,1.26278 -0.0946,2.59899 -0.094,3.57445 0,0.0101 -0.002,0.0266 -0.002,0.0367 l 0.90847,0.0351 c 0,0 0.0966,-1.20796 0.34572,-2.39417 0.12455,-0.59312 0.29268,-1.18052 0.48059,-1.57613 0.094,-0.19782 0.19271,-0.34489 0.26717,-0.41807 0.0745,-0.0732 0.0934,-0.0691 0.10748,-0.0687 0.025,8e-4 0.0146,-0.0101 0.0589,0.0434 0.0443,0.0535 0.10954,0.17942 0.16019,0.35709 0.10131,0.35534 0.14954,0.89834 0.154,1.44332 0.005,0.54498 -0.0293,1.09585 -0.0625,1.50585 -0.0166,0.205 -0.0333,0.37629 -0.045,0.49454 -0.006,0.0591 -0.0103,0.1033 -0.0134,0.1385 -0.002,0.0176 -0.003,0.0299 -0.004,0.0527 -5.3e-4,0.0114 -0.004,0.0138 0.002,0.0723 0.001,0.0146 0.0139,0.0721 0.0139,0.0724 5e-5,2e-4 0.14618,0.23197 0.14625,0.23203 7e-5,6e-5 0.59367,-0.006 0.59376,-0.006 9e-5,-8e-5 0.10738,-0.13879 0.10749,-0.13901 l 0.0351,-0.0703 0.01,-0.078 c 0,0 0.14168,-1.13202 0.41031,-2.23242 0.13432,-0.5502 0.30362,-1.09239 0.48008,-1.44901 0.0882,-0.17831 0.17966,-0.3066 0.23668,-0.36122 0.004,-0.004 0.002,-0.002 0.005,-0.005 -5.2e-4,-8e-4 -10e-4,-0.002 -0.002,-0.003 -0.0363,-0.0575 -0.0143,-0.0268 0.006,-0.0238 0.0256,0.003 0.039,-0.0141 -0.005,0.0269 0.0362,0.0586 0.0877,0.19158 0.12351,0.37156 0.0725,0.36404 0.0896,0.90197 0.0703,1.4397 -0.0387,1.07547 -0.13281,1.96681 -0.13281,1.96681 v 0 c 0,0 0.31891,0.71128 0.37517,0.71881 0.0563,0.008 0.13298,0.0153 0.22428,0.0155 0.1826,5.3e-4 0.42972,-0.0258 0.69349,-0.13901 0.2713,-0.11642 0.53504,-0.34362 0.74828,-0.67748 0.26705,0.41571 0.66156,0.78077 1.28106,0.89038 0.41169,0.0729 0.75849,-0.0806 1.04903,-0.30075 0.0347,0.0637 0.0576,0.12899 0.12661,0.18965 0.10688,0.0939 0.28121,0.1572 0.43356,0.14831 0.43308,-0.0253 0.81592,-0.23703 1.10949,-0.5333 0.29359,-0.29627 0.51884,-0.67468 0.70901,-1.10329 0.0109,-0.0246 0.011,-0.0609 0.0217,-0.0858 0.0115,0.0633 2.7e-4,0.16 0.0134,0.22065 0.0881,0.40832 0.20252,0.76016 0.44132,1.04283 0.2388,0.28268 0.69813,0.4335 1.0821,0.3049 0.44731,-0.14982 0.77385,-0.50956 1.13482,-0.81649 0.46977,0.35365 0.96597,0.70099 1.43764,0.8263 0.15295,0.0406 0.34011,0.0258 0.48627,-0.0434 0.14616,-0.0692 0.24465,-0.17311 0.31833,-0.27543 0.14737,-0.20463 0.22259,-0.42469 0.29869,-0.67179 0.037,-0.12019 0.0818,-0.27087 0.1173,-0.40205 0.10136,0.23024 0.13933,0.4848 0.29094,0.68162 0.33009,0.42853 0.8523,0.78434 1.45314,0.67179 0.43962,-0.0823 0.80632,-0.31398 1.04697,-0.62683 0.0283,-0.0368 0.0275,-0.0888 0.0527,-0.12713 0.0594,0.13345 0.0447,0.32158 0.13849,0.42013 0.24397,0.2563 0.55446,0.36804 0.82838,0.41755 0.54783,0.099 1.04489,-0.0289 1.04489,-0.0289 l -0.20722,-0.88677 c 0,0 -0.37034,0.0748 -0.67541,0.0196 -0.15254,-0.0276 -0.26533,-0.0822 -0.33021,-0.15038 -0.0649,-0.0682 -0.12405,-0.16169 -0.11317,-0.42581 0.0596,-1.44636 0.18345,-7.23057 0.18344,-7.23057 l -0.89451,-0.12505 c 0,0 -0.016,0.0775 -0.0274,0.18345 -0.0114,0.106 -0.0279,0.27908 -0.045,0.5705 -0.0297,0.50839 -0.0659,1.61795 -0.0997,3.10731 -0.34632,-0.063 -0.69443,-0.15924 -0.98031,-0.0822 -1.2688,0.34207 -1.6678,1.20475 -2.15645,2.04691 -0.3392,0.58458 -0.36724,1.2762 -0.49765,1.69963 -0.0487,0.15823 -0.0896,0.23365 -0.12506,0.30438 -0.25143,-0.0818 -0.52825,-0.28662 -0.81235,-0.47077 0.43251,-0.52825 0.77952,-1.09665 0.92139,-1.62678 0.23351,-0.87255 0.25798,-1.55066 0.094,-2.07636 -0.16393,-0.5257 -0.62173,-0.9153 -1.12138,-0.89452 -0.49965,0.0208 -0.92429,0.34548 -1.25935,0.83199 -0.33506,0.48651 -0.58797,1.1622 -0.6935,2.01952 -0.084,0.68254 0.23461,1.26278 0.64441,1.7539 -0.25209,0.19317 -0.48454,0.45893 -0.74208,0.54518 -0.10119,0.0339 -0.0308,0.0476 -0.0977,-0.0315 -0.0669,-0.0792 -0.17603,-0.31417 -0.24805,-0.64802 -0.14405,-0.66769 -0.18108,-1.70003 -0.15245,-2.75384 0.002,-0.0849 0.0109,-0.0891 0.0139,-0.17415 0.0756,-0.48456 0.13294,-0.96121 0.1788,-1.41283 0.31168,0.0179 0.63434,0.0246 0.96945,-0.015 l -0.10542,-0.90227 c -0.24574,0.029 -0.5117,0.0248 -0.78445,0.0103 0.0762,-1.04225 0.0829,-1.78945 0.0832,-1.82263 0,-7.9e-4 0.004,-0.0568 0.004,-0.0568 l -0.9064,-0.0646 c 0,0 -0.004,0.0562 -0.004,0.0568 -0.003,0.0235 -0.0864,1.05884 -0.14883,1.81902 -0.39454,-0.0248 -0.78985,-0.0257 -1.17719,0.0987 l 0.27751,0.86764 c 0.19231,-0.0618 0.48162,-0.0729 0.82527,-0.0574 -0.0128,0.16336 -0.0161,0.19009 -0.0284,0.35037 -0.0458,0.46497 -0.005,0.49403 -0.0822,0.98805 -0.15845,1.01629 -0.39664,2.03183 -0.71881,2.75797 -0.16109,0.36308 -0.34395,0.65081 -0.52349,0.83199 -0.0992,0.10014 -0.19233,0.10389 -0.28525,0.14625 -0.002,-0.0202 -0.005,-0.0189 -0.006,-0.0408 -0.012,-0.2397 0.024,-0.61136 0.0584,-0.971 0.008,-0.0527 0.0382,-0.0977 0.0449,-0.15038 0.0299,-0.23209 0.0353,-0.4117 0.0512,-0.63046 0.10197,-0.66672 0.22841,-1.42988 0.22841,-1.42988 l 0.14625,-0.72089 -0.709,0.19172 c -0.12964,0.0349 -0.16868,0.11604 -0.22841,0.18914 -0.2948,-0.0402 -0.54144,-0.12172 -1.13275,0.006 -0.4338,0.0937 -0.96948,0.22546 -1.28519,0.65835 -0.3841,0.52666 -0.61553,1.09729 -0.73019,1.64848 -0.17976,0.86411 -0.37771,1.08999 -0.6134,1.19114 -0.0195,0.008 -0.0352,0.005 -0.0548,0.0119 0.0517,-0.36413 0.13269,-0.83933 0.16382,-1.70532 0.0206,-0.57438 0.0107,-1.15531 -0.0879,-1.65003 -0.0493,-0.24737 -0.11719,-0.47632 -0.24805,-0.68367 -0.13086,-0.20736 -0.36571,-0.40589 -0.65422,-0.44132 -0.29561,-0.0363 -0.56831,0.10508 -0.74776,0.27699 -0.17945,0.17189 -0.30814,0.38077 -0.42426,0.61546 -0.0476,0.0961 -0.0682,0.23118 -0.11111,0.3359 -0.0153,-0.0683 -0.007,-0.15314 -0.0253,-0.21859 -0.0719,-0.25203 -0.16689,-0.48621 -0.33383,-0.68782 -0.16695,-0.2016 -0.43805,-0.36238 -0.73277,-0.37104 -0.30568,-0.009 -0.57994,0.13984 -0.77153,0.32815 -0.14185,0.13942 -0.23703,0.32067 -0.3359,0.50023 0.01,-0.24604 0.01,-0.50356 0.0196,-0.73071 l -0.90433,-0.0858 c -0.0873,0.5968 -0.25233,0.85273 -0.36897,0.94723 -0.11664,0.0945 -0.2498,0.11506 -0.50592,0.0682 -0.25611,-0.0469 -0.58535,-0.17447 -0.92397,-0.29869 -0.32274,-0.11838 -0.65797,-0.23252 -1.03508,-0.22272 -0.008,-1.7e-4 -0.01,-0.0119 -0.0176,-0.0119 h -0.002 c -0.004,-3e-5 -0.004,0.006 -0.008,0.006 -0.007,2.6e-4 -0.0123,-0.006 -0.0196,-0.006 l -0.01,0.002 c -0.53266,0.0414 -0.91229,0.33205 -1.18907,0.68162 -0.0494,0.0596 -0.16099,0.0488 -0.20154,0.11368 -0.0308,0.0492 -0.0121,0.11802 -0.0387,0.1695 -0.24712,0.49305 -0.31643,1.04727 -0.36743,1.5627 -0.051,0.51544 -0.082,1.00188 -0.15606,1.28313 -0.037,0.14061 -0.0856,0.21778 -0.0977,0.23047 -0.0121,0.0127 0.0308,0.004 -0.0274,0 0.004,2.7e-4 -0.008,0.0229 -0.0842,-0.13281 -0.0767,-0.15575 -0.15191,-0.44479 -0.19895,-0.80667 -0.0941,-0.72372 -0.0863,-1.73582 -0.0274,-2.74608 0.007,-0.1132 0.0155,-0.1135 0.0233,-0.22634 0.0411,-0.30618 0.073,-0.56548 0.10283,-0.81494 0.27361,0.0185 0.56755,0.0239 0.88367,-0.0134 l -0.10542,-0.90434 c -0.22785,0.0269 -0.4527,0.0252 -0.678,0.0119 0.0453,-0.45837 0.0725,-0.81113 0.0997,-1.13068 0.0286,-0.20275 0.1018,-0.9648 0.1018,-0.9648 3e-5,-2.6e-4 0.004,-0.0357 0.004,-0.0357 z m -22.63272,0.79065 c 0.0787,0.18015 0.1531,0.28079 0.21084,0.61546 0.0936,0.54284 0.12031,1.21915 0.0351,1.86345 -0.0754,0.57039 -0.30882,0.90822 -0.45889,1.39423 -0.0342,-0.51154 -0.16485,-0.64181 -0.14624,-1.31619 0.0677,-1.34945 0.21838,-2.12687 0.35915,-2.55695 z m -6.98407,0.13487 c 0.10736,0.46927 0.21834,1.14329 0.28318,2.41019 0.0684,1.33543 -0.19544,2.19424 -0.73638,2.85771 -0.0388,0.0476 -0.14543,0.0693 -0.18759,0.11524 -0.1715,-0.93844 -0.21234,-1.92746 -0.0295,-2.90474 0.1293,-0.69096 0.2905,-1.39862 0.45889,-1.9668 0.0811,-0.27369 0.12958,-0.32407 0.21136,-0.5116 z m 9.91981,0.53537 c 0.0103,0.0762 0.0246,0.093 0.0331,0.17157 0.0602,0.55509 0.0882,1.17098 0.0858,1.65261 -0.0966,0.59981 -0.33437,1.05842 -0.51728,1.58956 -0.0269,-0.47074 -0.0528,-0.94714 0.0253,-1.52135 0.14174,-1.04182 0.25521,-1.40169 0.3731,-1.89239 z m 39.87094,2.21485 c 0.0834,-0.003 0.12861,-0.0124 0.21291,0.25787 0.0843,0.27034 0.10185,0.80316 -0.10335,1.56993 -0.0895,0.33433 -0.37463,0.81344 -0.71675,1.24643 -0.26203,-0.3337 -0.52503,-0.67536 -0.48266,-1.01957 0.0909,-0.73853 0.30825,-1.27832 0.53898,-1.61334 0.23074,-0.33503 0.46746,-0.43785 0.55087,-0.44132 z m 3.82303,1.06195 c 0.2185,-0.0178 0.47122,0.0275 0.74517,0.0822 -0.0736,0.76076 -0.11678,1.52874 -0.22427,2.03553 -0.0682,0.32173 -0.16492,0.56088 -0.28164,0.71262 -0.11672,0.15174 -0.24234,0.24017 -0.49403,0.28732 -0.17512,0.0328 -0.35154,-0.056 -0.5643,-0.33228 -0.21277,-0.27622 -0.38952,-0.70675 -0.45682,-1.08779 -0.067,-0.37921 0.14675,-0.73981 0.33383,-1.08365 0.24043,-0.4419 0.47585,-0.57602 0.94206,-0.61392 z m -21.08657,0.008 c 0.32233,0.01 0.57424,0.16469 0.79478,0.48059 0.22596,0.32365 0.38189,0.79733 0.41807,1.25367 0.0362,0.45633 -0.0538,0.88799 -0.20723,1.13274 -0.1534,0.24476 -0.29238,0.34668 -0.66972,0.28733 -0.37966,-0.0597 -0.65571,-0.26487 -0.8692,-0.58033 -0.20805,-0.30742 -0.32795,-0.7222 -0.35347,-1.12655 0.0499,-0.3764 0.10241,-0.7604 0.22066,-0.99632 0.1437,-0.28671 0.29445,-0.41501 0.66611,-0.45113 z m 11.56622,0.56637 c -0.0147,0.20685 -0.0396,0.45104 -0.0563,0.68575 -0.0357,0.23429 -0.0503,0.24888 -0.0801,0.49971 -0.0123,0.10375 -0.007,0.1901 -0.0176,0.293 -0.0641,0.38853 -0.1471,0.77116 -0.26975,0.97049 -0.14344,0.23309 -0.20266,0.29432 -0.50798,0.24029 -0.52085,-0.0922 -0.70929,-0.32714 -0.82579,-0.65629 -0.11421,-0.32267 -0.0902,-0.75392 -0.002,-1.07022 0.006,-0.0161 0.0129,-0.0315 0.0196,-0.047 0.0732,-0.22219 0.20822,-0.39199 0.4253,-0.53486 0.22724,-0.14954 0.53059,-0.25995 0.83406,-0.33021 0.24682,-0.0572 0.281,-0.0339 0.48059,-0.0506 z m -22.20691,0.29094 c 0.28757,0.0221 0.63081,0.3773 0.8263,1.01182 -0.0697,0.38599 -0.15505,0.75528 -0.28732,0.93535 -0.17067,0.23236 -0.3395,0.30562 -0.48059,0.31264 -0.14109,0.007 -0.28566,-0.0472 -0.43356,-0.22634 -0.14791,-0.17918 -0.28261,-0.49133 -0.30645,-0.95343 -0.0234,-0.45327 0.0882,-0.73078 0.2186,-0.88471 0.13039,-0.15391 0.28228,-0.20918 0.46302,-0.19533 z m -5.9552,3.6406 c 0.10255,1.07326 0.15836,2.13996 0.0589,2.84789 -0.0539,0.38333 -0.15633,0.66498 -0.23875,0.77928 -0.0824,0.11431 -0.0535,0.10937 -0.1912,0.0801 -0.34183,-0.0727 -0.54382,-0.18757 -0.66404,-0.30489 -0.12023,-0.11731 -0.18005,-0.24497 -0.20309,-0.4377 -0.0461,-0.38544 0.13183,-1.02294 0.47439,-1.72238 0.2077,-0.42411 0.48727,-0.79965 0.76377,-1.2423 z m -16.25378,0.72657 c 0.1809,0.6585 0.28004,1.29539 0.26148,1.81436 -0.0168,0.4705 -0.12074,0.83971 -0.22634,1.00976 -0.0528,0.085 -0.0966,0.11667 -0.11938,0.12713 -0.0228,0.0105 -0.0356,0.0175 -0.10542,-0.002 -0.39614,-0.11124 -0.62307,-0.2581 -0.74569,-0.39429 -0.12262,-0.13619 -0.1668,-0.26602 -0.16639,-0.46096 7.9e-4,-0.38988 0.28595,-1.01988 0.73277,-1.65467 0.10798,-0.15342 0.24823,-0.28606 0.36897,-0.43925 z"
           style="color:#000000;font-style:normal;font-variant:normal;font-weight:normal;font-stretch:normal;font-size:medium;line-height:normal;font-family:sans-serif;font-variant-ligatures:normal;font-variant-position:normal;font-variant-caps:normal;font-variant-numeric:normal;font-variant-alternates:normal;font-feature-settings:normal;text-indent:0;text-align:start;text-decoration:none;text-decoration-line:none;text-decoration-style:solid;text-decoration-color:#000000;letter-spacing:normal;word-spacing:normal;text-transform:none;writing-mode:lr-tb;direction:ltr;text-orientation:mixed;dominant-baseline:auto;baseline-shift:baseline;text-anchor:start;white-space:normal;shape-padding:0;clip-rule:nonzero;display:inline;overflow:visible;visibility:visible;opacity:1;isolation:auto;mix-blend-mode:normal;color-interpolation:sRGB;color-interpolation-filters:linearRGB;solid-color:#000000;solid-opacity:1;vector-effect:none;fill:url(#linearGradient974);fill-opacity:1;fill-rule:evenodd;stroke:none;stroke-width:0.90996826;stroke-linecap:butt;stroke-linejoin:miter;stroke-miterlimit:4;stroke-dasharray:none;stroke-dashoffset:0;stroke-opacity:1;color-rendering:auto;image-rendering:auto;shape-rendering:auto;text-rendering:auto;enable-background:accumulate" />
      </g>
    </g>
  </g>
</svg>
